{"title":"Inna Ft. Daddy Yankee - More Than Friends [Music Video] 720p [Sb","uid":11141686,"size":79467985,"categoryP":"video","categoryS":"music_videos","magnet":"?xt=urn:btih:70c63cf45efd513195728edb01ae9b425f9e6592&amp;dn=Inna+Ft.+Daddy+Yankee+-+More+Than+Friends+%5BMusic+Video%5D+720p+%5BSb&amp;tr=udp%3A%2F%2Ftracker.openbittorrent.com%3A80&amp;tr=udp%3A%2F%2Fopen.demonii.com%3A1337&amp;tr=udp%3A%2F%2Ftracker.coppersurfer.tk%3A6969&amp;tr=udp%3A%2F%2Fexodus.desync.com%3A6969","seeders":1,"leechers":0,"uploader":"Sbyky","files":1,"time":1412178843,"description":"General\nComplete name                            : Inna Ft. Daddy Yankee - More Than Friends [Music Video] 720p [Sbyky].MP4\nFormat                                   : MPEG-4\nFormat profile                           : Base Media / Version 2\nCodec ID                                 : mp42\nFile size                                : 75.8 MiB\nDuration                                 : 4mn 21s\nOverall bit rate mode                    : Variable\nOverall bit rate                         : 2 435 Kbps\nEncoded date                             : UTC 2014-03-10 04:51:10\nTagged date                              : UTC 2014-03-10 04:51:10\n\nVideo\nID                                       : 1\nFormat                                   : AVC\nFormat/Info                              : Advanced Video Codec\nFormat profile                           : &lt;a class=&quot;__cf_email__&quot; href=&quot;/cdn-cgi/l/email-protection&quot; data-cfemail=&quot;86ceefe1eec6cab5a8b7&quot;&gt;[email&amp;#160;protected]&lt;/a&gt;&lt;script cf-hash='f9e31' type=&quot;text/javascript&quot;&gt;\n/* &lt;![CDATA[ */!function(){try{var t=&quot;currentScript&quot;in document?document.currentScript:function(){for(var t=document.getElementsByTagName(&quot;script&quot;),e=t.length;e--;)if(t[e].getAttribute(&quot;cf-hash&quot;))return t[e]}();if(t&amp;&amp;t.previousSibling){var e,r,n,i,c=t.previousSibling,a=c.getAttribute(&quot;data-cfemail&quot;);if(a){for(e=&quot;&quot;,r=parseInt(a.substr(0,2),16),n=2;a.length-n;n+=2)i=parseInt(a.substr(n,2),16)^r,e+=String.fromCharCode(i);e=document.createTextNode(e),c.parentNode.replaceChild(e,c)}}}catch(u){}}();/* ]]&gt; */&lt;/script&gt;\nFormat settings, CABAC                   : Yes\nFormat settings, ReFrames                : 1 frame\nCodec ID                                 : avc1\nCodec ID/Info                            : Advanced Video Coding\nDuration                                 : 4mn 21s\nBit rate                                 : 2 240 Kbps\nMaximum bit rate                         : 7 961 Kbps\nWidth                                    : 1 280 pixels\nHeight                                   : 720 pixels\nDisplay aspect ratio                     : 16:9\nFrame rate mode                          : Constant\nFrame rate                               : 25.000 fps\nColor space                              : YUV\nChroma subsampling                       : 4:2:0\nBit depth                                : 8 bits\nScan type                                : Progressive\nBits/(Pixel*Frame)                       : 0.097\nStream size                              : 69.7 MiB (92%)\nTagged date                              : UTC 2014-03-10 04:51:12\n\nAudio\nID                                       : 2\nFormat                                   : AAC\nFormat/Info                              : Advanced Audio Codec\nFormat profile                           : LC\nCodec ID                                 : 40\nDuration                                 : 4mn 21s\nBit rate mode                            : Variable\nBit rate                                 : 192 Kbps\nMaximum bit rate                         : 201 Kbps\nChannel(s)                               : 2 channels\nChannel positions                        : Front: L R\nSampling rate                            : 44.1 KHz\nCompression mode                         : Lossy\nStream size                              : 5.98 MiB (8%)\nTitle                                    : IsoMedia File Produced by Google, 5-11-2011\nEncoded date                             : UTC 2014-03-10 04:51:11\nTagged date                              : UTC 2014-03-10 04:51:12\n\nShared By Sbyky\n","torrent":{"xt":"urn:btih:70c63cf45efd513195728edb01ae9b425f9e6592","amp;dn":"Inna+Ft.+Daddy+Yankee+-+More+Than+Friends+%5BMusic+Video%5D+720p+%5BSb","amp;tr":["udp%3A%2F%2Ftracker.openbittorrent.com%3A80","udp%3A%2F%2Fopen.demonii.com%3A1337","udp%3A%2F%2Ftracker.coppersurfer.tk%3A6969","udp%3A%2F%2Fexodus.desync.com%3A6969"],"infoHash":"70c63cf45efd513195728edb01ae9b425f9e6592","infoHashBuffer":{"type":"Buffer","data":[112,198,60,244,94,253,81,49,149,114,142,219,1,174,155,66,95,158,101,146]},"announce":[],"urlList":[]}}